HIERARCHY
ROOT Pelvis
{
	OFFSET -0.217368 -24.078917 2.858379
	CHANNELS 6 Xposition Yposition Zposition Zrotation Yrotation Xrotation 
	JOINT Left_hip
	{
		OFFSET 5.858135 -8.228005 -1.766408
		CHANNELS 3 Zrotation Yrotation Xrotation
		JOINT Left_knee
		{
			OFFSET 4.345143 -38.646942 0.803700
			CHANNELS 3 Zrotation Yrotation Xrotation
			JOINT Left_ankle
			{
				OFFSET -1.479033 -42.687447 -3.742800
				CHANNELS 3 Zrotation Yrotation Xrotation
				JOINT Left_foot
				{
					OFFSET 4.105436 -6.028605 12.204244
					CHANNELS 3 Zrotation Yrotation Xrotation
					End Site
					{
						OFFSET 0.000000 0.000000 0.000000
					}
				}
			}
		}
	}
	JOINT Right_hip
	{
		OFFSET -6.030973 -9.051328 -1.354253
		CHANNELS 3 Zrotation Yrotation Xrotation
		JOINT Right_knee
		{
			OFFSET -4.325663 -38.368790 -0.484304
			CHANNELS 3 Zrotation Yrotation Xrotation
			JOINT Right_ankle
			{
				OFFSET 1.905555 -42.004566 -3.456167
				CHANNELS 3 Zrotation Yrotation Xrotation
				JOINT Right_foot
				{
					OFFSET -3.483987 -6.210554 13.032330
					CHANNELS 3 Zrotation Yrotation Xrotation
					End Site
					{
						OFFSET 0.000000 0.000000 0.000000
					}
				}
			}
		}
	}
	JOINT Spine1
	{
		OFFSET 0.443945 12.440353 -3.838522
		CHANNELS 3 Zrotation Yrotation Xrotation
		JOINT Spine2
		{
			OFFSET 0.448844 13.795640 2.682033
			CHANNELS 3 Zrotation Yrotation Xrotation
			JOINT Spine3
			{
				OFFSET -0.226460 5.603239 0.285504
				CHANNELS 3 Zrotation Yrotation Xrotation
				JOINT Neck
				{
					OFFSET -1.339018 21.163553 -3.346758
					CHANNELS 3 Zrotation Yrotation Xrotation
					JOINT Head
					{
						OFFSET 1.011321 8.893734 5.040987
						CHANNELS 3 Zrotation Yrotation Xrotation
						End Site
						{
							OFFSET 0.000000 0.000000 0.000000
						}
					}
				}
				JOINT Left_collar
				{
					OFFSET 7.170247 11.399971 -1.889817
					CHANNELS 3 Zrotation Yrotation Xrotation
					JOINT Left_shoulder
					{
						OFFSET 12.292140 4.520507 -1.904600
						CHANNELS 3 Zrotation Yrotation Xrotation
						JOINT Left_elbow
						{
							OFFSET 25.533188 -1.564902 -2.294648
							CHANNELS 3 Zrotation Yrotation Xrotation
							JOINT Left_wrist
							{
								OFFSET 26.570929 1.269810 -0.737473
								CHANNELS 3 Zrotation Yrotation Xrotation
								JOINT Left_palm
								{
									OFFSET 8.669054 -1.063602 -1.559429
									CHANNELS 3 Zrotation Yrotation Xrotation
									End Site
									{
										OFFSET 0.000000 0.000000 0.000000
									}
								}
							}
						}
					}
				}
				JOINT Right_collar
				{
					OFFSET -8.295364 11.247234 -2.370738
					CHANNELS 3 Zrotation Yrotation Xrotation
					JOINT Right_shoulder
					{
						OFFSET -11.322830 4.685326 -0.847207
						CHANNELS 3 Zrotation Yrotation Xrotation
						JOINT Right_elbow
						{
							OFFSET -26.012751 -1.436928 -3.126872
							CHANNELS 3 Zrotation Yrotation Xrotation
							JOINT Right_wrist
							{
								OFFSET -26.910841 0.679372 -0.602677
								CHANNELS 3 Zrotation Yrotation Xrotation
								JOINT Right_palm
								{
									OFFSET -8.875370 -0.865157 -1.010708
									CHANNELS 3 Zrotation Yrotation Xrotation
									End Site
									{
										OFFSET 0.000000 0.000000 0.000000
									}
								}
							}
						}
					}
				}
			}
		}
	}
}
MOTION
Frames: 16
Frame Time: 0.016667
-0.217368 68.318161 2.858379 3.059468 -9.916895 8.140380 2.955430 -1.721658 -25.406174 -7.557143 1.526357 20.736565 6.464753 14.080702 4.544477 0.000000 0.000000 0.000000 -15.427022 -0.677405 -29.116537 13.062699 -3.367782 25.131381 -7.985479 -19.698821 9.457621 0.000000 0.000000 0.000000 4.802386 -3.251566 37.340323 1.749202 -0.077031 -17.230801 4.676585 13.124895 26.386837 12.650062 -7.005621 -12.793598 0.000000 0.000000 0.000000 -15.411773 -8.432534 2.593932 -52.345356 -8.366923 -2.222858 -69.828115 -80.790234 65.242345 0.000000 0.000000 0.000000 0.000000 0.000000 0.000000 6.366056 16.656949 6.223391 12.991434 29.799712 0.785548 -64.893004 24.442602 -13.170882 0.000000 0.000000 0.000000 0.000000 0.000000 0.000000 
-0.294718 68.277451 2.795877 2.590507 -11.425275 9.125010 3.923080 -1.653868 -27.729974 -8.882495 1.985474 22.050938 6.374670 13.992714 5.092227 0.000000 0.000000 0.000000 -15.503269 -0.773681 -31.192664 14.193620 -3.710626 24.705952 -8.393136 -20.440524 12.389456 0.000000 0.000000 0.000000 5.274713 -3.267578 35.802562 1.612960 -0.093441 -15.804103 3.489601 12.340570 25.909074 12.151330 -6.640315 -13.013680 0.000000 0.000000 0.000000 -14.691305 -6.820575 1.813012 -50.226071 -6.582624 -2.876270 -89.565810 -81.592842 85.211449 0.000000 0.000000 0.000000 0.000000 0.000000 0.000000 6.919380 18.353165 6.990930 11.066382 32.318096 0.550134 -59.397393 19.484065 -9.043931 0.000000 0.000000 0.000000 0.000000 0.000000 0.000000 
-0.360419 67.974304 2.726669 2.529068 -11.848386 9.470855 3.785181 -1.704760 -28.031120 -8.370821 1.810521 21.690466 7.024204 15.132782 4.903615 0.000000 0.000000 0.000000 -14.808670 -0.624368 -32.069924 12.807067 -3.326829 25.693631 -8.918786 -21.426019 9.628919 0.000000 0.000000 0.000000 5.890309 -3.468960 35.758912 1.243916 -0.017378 -14.681402 2.560809 14.319390 23.985002 13.593336 -7.129569 -14.847513 0.000000 0.000000 0.000000 -14.020952 -7.961756 2.389703 -48.455259 -6.076973 -2.975254 -74.294975 -83.082090 71.691191 0.000000 0.000000 0.000000 0.000000 0.000000 0.000000 10.313201 19.915239 8.034446 6.791156 29.898641 -0.369284 -56.332928 17.899095 -7.655080 0.000000 0.000000 0.000000 0.000000 0.000000 0.000000 
-0.423916 67.873177 2.656167 2.899518 -11.568808 9.525900 3.371129 -1.874931 -29.127288 -9.104380 2.074714 22.451195 7.153480 15.264538 3.991365 0.000000 0.000000 0.000000 -15.535397 -0.820577 -32.203963 13.576670 -3.580719 25.571785 -9.984390 -23.357610 9.845077 0.000000 0.000000 0.000000 5.431726 -3.433839 36.960377 2.131147 -0.249990 -16.009346 2.794305 14.916096 25.003592 14.877137 -7.978694 -14.603144 0.000000 0.000000 0.000000 -13.050411 -8.857895 2.837812 -47.090493 -4.857212 -3.353434 -107.962399 -80.981653 103.420797 0.000000 0.000000 0.000000 0.000000 0.000000 0.000000 10.117119 20.558838 8.314354 4.018803 30.507711 -0.899998 -52.547055 14.895060 -5.622978 0.000000 0.000000 0.000000 0.000000 0.000000 0.000000 
-0.493140 67.889305 2.641053 3.250573 -11.251187 9.455827 2.931872 -1.910283 -28.067952 -8.665190 1.836712 20.277985 6.992323 14.933267 3.673316 0.000000 0.000000 0.000000 -15.439595 -0.794516 -32.183992 13.091874 -3.462830 26.146771 -10.022919 -23.474717 9.168636 0.000000 0.000000 0.000000 5.947586 -3.688329 37.693152 1.660926 -0.040010 -17.473414 2.204025 13.773649 25.262774 14.686337 -8.306430 -12.793479 0.000000 0.000000 0.000000 -12.732892 -9.100425 2.956586 -47.088835 -4.025689 -3.666675 -100.529156 -79.450278 94.132210 0.000000 0.000000 0.000000 0.000000 0.000000 0.000000 10.648530 20.821971 8.501739 1.042894 31.682759 -1.532500 -49.712058 15.437453 -5.490437 0.000000 0.000000 0.000000 0.000000 0.000000 0.000000 
-0.579018 67.815079 2.621794 3.439251 -12.067580 8.596900 3.338789 -1.771369 -27.427188 -9.184125 2.013806 20.756247 6.780861 14.591876 4.051979 0.000000 0.000000 0.000000 -15.602828 -0.835412 -32.127482 13.803230 -3.740060 26.468562 -10.221410 -23.795337 9.712637 0.000000 0.000000 0.000000 6.083795 -3.804113 38.333717 1.102473 0.090184 -16.365239 1.820263 13.229816 23.729237 13.656964 -8.001454 -11.307205 0.000000 0.000000 0.000000 -12.619222 -9.614284 3.200448 -46.599171 -2.435049 -4.217003 -115.644081 -78.277604 108.965198 0.000000 0.000000 0.000000 0.000000 0.000000 0.000000 9.199945 21.852940 8.803136 0.082322 34.037130 -1.868521 -48.960101 12.928547 -4.319010 0.000000 0.000000 0.000000 0.000000 0.000000 0.000000 
-0.638691 67.748543 2.622440 3.458235 -12.755720 8.521618 3.578883 -1.717944 -27.464198 -9.574193 2.151557 21.142393 6.944897 14.823098 3.482542 0.000000 0.000000 0.000000 -15.574626 -0.850474 -32.707648 14.184041 -3.964971 27.422543 -10.429390 -24.156854 9.872854 0.000000 0.000000 0.000000 5.575236 -3.644147 38.559521 1.614238 -0.070222 -16.382056 2.070914 13.364836 23.411066 12.849381 -7.547899 -10.973664 0.000000 0.000000 0.000000 -12.813432 -9.005090 2.910582 -46.605681 -1.516382 -4.557303 -119.642577 -77.292071 112.414230 0.000000 0.000000 0.000000 0.000000 0.000000 0.000000 8.185750 22.364110 8.901987 -1.411305 34.887512 -2.273500 -49.032418 13.204390 -4.444420 0.000000 0.000000 0.000000 0.000000 0.000000 0.000000 
-0.683271 67.613083 2.644506 3.166982 -13.055841 8.837810 4.276092 -1.595959 -28.169773 -10.532698 2.550775 22.844165 7.093562 14.975573 2.441108 0.000000 0.000000 0.000000 -15.840424 -0.963387 -33.707932 14.964081 -4.319387 28.122065 -10.101250 -23.576468 9.735883 0.000000 0.000000 0.000000 5.280960 -3.529356 38.473409 1.843115 -0.130061 -16.665582 1.537619 13.463280 22.917265 12.542473 -7.416337 -10.661028 0.000000 0.000000 0.000000 -12.067567 -8.432063 2.652135 -45.537607 -0.817836 -4.695710 -124.845731 -75.350533 116.464277 0.000000 0.000000 0.000000 0.000000 0.000000 0.000000 8.228881 21.548571 8.539745 -1.994695 36.477663 -2.541301 -49.617670 13.671006 -4.711195 0.000000 0.000000 0.000000 0.000000 0.000000 0.000000 
-0.716089 67.603233 2.673464 3.036644 -13.420928 8.654914 4.799196 -1.484260 -28.424171 -11.508783 2.986106 24.512187 7.478199 15.690390 2.352652 0.000000 0.000000 0.000000 -15.890941 -0.975720 -33.666737 15.055549 -4.421062 28.769990 -9.716455 -22.898500 9.403894 0.000000 0.000000 0.000000 5.181321 -3.491889 38.457403 1.869182 -0.118581 -17.120142 0.785735 12.998545 22.983589 12.015914 -7.240018 -9.881277 0.000000 0.000000 0.000000 -12.253416 -8.412067 2.639590 -44.737634 -0.931667 -4.566897 -128.475134 -76.069859 121.318589 0.000000 0.000000 0.000000 0.000000 0.000000 0.000000 8.373845 21.386439 8.484778 -2.119117 38.100194 -2.708460 -49.149416 14.801989 -5.141971 0.000000 0.000000 0.000000 0.000000 0.000000 0.000000 
-0.685851 67.726295 2.676996 3.199904 -13.869950 8.520207 5.131129 -1.410494 -28.552081 -12.614500 3.410435 25.128933 7.919950 16.620289 3.559714 0.000000 0.000000 0.000000 -16.529136 -1.158878 -33.785492 15.865941 -4.780052 29.253573 -9.776035 -22.946240 10.426132 0.000000 0.000000 0.000000 4.589436 -3.355670 39.299019 2.192889 -0.200980 -17.492926 0.837899 13.100634 23.215752 11.450050 -6.949997 -9.463066 0.000000 0.000000 0.000000 -12.315075 -8.867738 2.851794 -43.841609 -1.664951 -4.217847 -134.779334 -76.049822 128.706187 0.000000 0.000000 0.000000 0.000000 0.000000 0.000000 7.240147 21.335962 8.321994 -3.553370 38.252601 -3.111522 -48.312265 14.535785 -4.923873 0.000000 0.000000 0.000000 0.000000 0.000000 0.000000 
-0.609149 67.766518 2.674135 3.131632 -13.564856 8.146303 5.449927 -1.300338 -27.837911 -12.946749 3.550357 25.423582 7.951352 16.673336 3.507332 0.000000 0.000000 0.000000 -16.717234 -1.193726 -33.430035 16.136260 -4.931132 29.667952 -9.613175 -22.632977 10.839474 0.000000 0.000000 0.000000 4.552073 -3.407557 40.016556 2.571729 -0.285343 -18.115125 0.487202 13.052729 23.529848 11.240872 -6.840656 -9.312388 0.000000 0.000000 0.000000 -11.912942 -9.085920 2.958137 -43.210581 -2.400929 -3.905713 -137.643489 -75.690826 131.846675 0.000000 0.000000 0.000000 0.000000 0.000000 0.000000 7.368935 20.846851 8.122510 -3.923038 37.927608 -3.178834 -48.657211 14.764757 -5.063679 0.000000 0.000000 0.000000 0.000000 0.000000 0.000000 
-0.493839 67.839745 2.642159 3.553784 -12.241607 7.811749 4.946651 -1.398569 -27.435204 -12.337850 3.382144 25.931736 7.384216 15.602601 3.195822 0.000000 0.000000 0.000000 -17.354450 -1.369107 -33.421150 16.452475 -5.137575 30.374271 -9.524760 -22.466810 11.024443 0.000000 0.000000 0.000000 5.028706 -3.630258 40.468838 2.684786 -0.334759 -17.805563 0.015521 12.324125 23.060049 11.091904 -6.843423 -8.824583 0.000000 0.000000 0.000000 -11.962079 -9.756568 3.269728 -42.512733 -3.111877 -3.604784 -139.527443 -76.854337 134.985152 0.000000 0.000000 0.000000 0.000000 0.000000 0.000000 6.854207 20.912587 8.090532 -4.463097 37.100241 -3.234996 -47.738048 14.074915 -4.662117 0.000000 0.000000 0.000000 0.000000 0.000000 0.000000 
-0.348067 67.728767 2.557664 3.564887 -11.599700 8.110861 4.649172 -1.498627 -28.016353 -11.893661 3.256028 26.305656 7.342476 15.478357 2.755039 0.000000 0.000000 0.000000 -17.811317 -1.547068 -34.283493 16.943651 -5.385824 30.817867 -9.828369 -22.963560 11.706878 0.000000 0.000000 0.000000 5.607572 -3.914239 41.089857 2.366447 -0.226300 -18.069085 0.084817 12.453516 23.639910 11.592192 -7.110166 -9.170769 0.000000 0.000000 0.000000 -11.731988 -10.198940 3.475550 -42.373899 -3.479677 -3.471392 -143.745744 -76.717677 139.961298 0.000000 0.000000 0.000000 0.000000 0.000000 0.000000 6.378924 21.082061 8.107278 -6.143168 35.644109 -3.492979 -47.785968 12.780815 -4.132212 0.000000 0.000000 0.000000 0.000000 0.000000 0.000000 
-0.202843 67.506950 2.427917 3.539198 -10.915182 7.895244 4.374754 -1.586211 -28.416429 -11.745770 3.266581 27.116570 7.450459 15.588137 1.877867 0.000000 0.000000 0.000000 -18.140998 -1.650315 -34.433740 17.443598 -5.617932 31.075282 -10.103172 -23.457559 11.466607 0.000000 0.000000 0.000000 5.922527 -4.129880 41.971177 1.589845 0.008176 -18.132921 0.118170 12.434759 24.086731 12.411766 -7.542933 -9.720994 0.000000 0.000000 0.000000 -11.212124 -10.602051 3.659592 -42.213848 -4.438844 -3.142692 -145.791481 -77.454994 142.907755 0.000000 0.000000 0.000000 0.000000 0.000000 0.000000 6.740545 21.300561 8.245304 -7.550626 34.796615 -3.724017 -47.167819 11.708319 -3.631413 0.000000 0.000000 0.000000 0.000000 0.000000 0.000000 
-0.095924 67.234596 2.296389 3.504418 -10.492984 7.966390 4.331903 -1.639765 -29.180416 -11.815779 3.381828 28.259227 7.660689 15.954171 1.536826 0.000000 0.000000 0.000000 -17.928898 -1.624995 -35.007537 17.696857 -5.838299 31.964947 -10.478365 -24.150106 10.985884 0.000000 0.000000 0.000000 5.669053 -4.175865 43.368403 1.400576 0.079019 -18.509745 0.372456 12.923003 24.619061 13.414210 -7.964235 -10.792012 0.000000 0.000000 0.000000 -11.343404 -11.120097 3.899097 -42.221973 -5.142469 -2.911438 -150.027933 -78.385083 148.538908 0.000000 0.000000 0.000000 0.000000 0.000000 0.000000 6.451229 21.685636 8.376023 -9.428775 34.334964 -4.101043 -46.328547 9.832218 -2.808613 0.000000 0.000000 0.000000 0.000000 0.000000 0.000000 
-0.018543 66.735291 2.167118 3.330200 -10.186604 7.864140 4.482993 -1.641142 -29.883097 -11.942217 3.517102 29.353277 7.988502 16.541270 1.084456 0.000000 0.000000 0.000000 -17.919483 -1.656873 -35.569749 18.577169 -6.281766 32.544674 -10.927889 -24.983591 10.512490 0.000000 0.000000 0.000000 5.207928 -4.249840 45.960129 1.218124 0.178632 -19.768454 1.153113 13.223555 25.376009 13.577638 -7.680755 -12.439004 0.000000 0.000000 0.000000 -11.294634 -11.242932 3.955131 -42.966456 -6.319341 -2.564604 -157.246240 -78.146291 157.147619 0.000000 0.000000 0.000000 0.000000 0.000000 0.000000 5.538234 22.318731 8.528701 -10.443329 33.814045 -4.253298 -45.667626 9.051575 -2.455981 0.000000 0.000000 0.000000 0.000000 0.000000 0.000000 
